<svg width="132" height="38" viewBox="0 0 132 38" fill="none" xmlns="http://www.w3.org/2000/svg">
<path fill-rule="evenodd" clip-rule="evenodd" d="M124.162 13.599C125.137 12.0958 126.809 10.5925 128.969 10.5925C131.303 10.5925 132 12.1657 132 13.1096C132 14.2283 131.129 15.1372 130.014 15.1372C129.133 15.1372 128.816 14.7555 128.546 14.4312C128.348 14.1917 128.175 13.9836 127.819 13.9836C126.565 13.9836 124.022 17.025 123.987 19.542C124.024 20.3793 124.081 21.2562 124.126 21.9513C124.166 22.5623 124.196 23.0328 124.196 23.2127C124.092 24.1566 123.325 24.9257 122.35 25.0306C121.2 25.1704 120.19 24.3314 120.051 23.1777C120.051 23.0595 120.059 22.933 120.067 22.8024C120.076 22.6627 120.086 22.5182 120.086 22.3737C118.274 23.807 115.731 25.2403 112.63 25.2403C110.017 25.2403 107.997 24.5761 106.673 23.3875C105.628 24.6111 104.13 25.2753 102.527 25.2403C100.089 25.2403 98.9739 24.0867 98.4862 22.8981C97.0578 24.4363 95.0721 25.2753 93.0166 25.2753C91.1702 25.3102 89.3935 24.681 88 23.4574C86.7458 24.6111 85.1433 25.2403 83.4711 25.2753C79.3951 25.2753 78.6635 22.7233 78.6635 19.8217C78.6635 19.1703 78.6931 18.3405 78.7208 17.5645C78.7452 16.8829 78.768 16.2428 78.768 15.8014C78.768 14.5779 78.1409 13.7039 77.1306 13.7039C75.1449 13.7039 72.9153 17.4445 72.9153 19.577C72.9526 20.4198 73.0099 21.2928 73.0551 21.9808C73.0943 22.5769 73.1243 23.0342 73.1243 23.2127C73.0546 24.1915 72.323 24.9956 71.3476 25.1354C70.1979 25.3102 69.1528 24.5062 68.9786 23.3525C67.7941 24.5062 66.4006 25.2403 64.6588 25.2403C63.2304 25.2403 60.7918 24.9606 59.3286 22.6534C57.8654 24.7858 55.9842 25.2054 54.1378 25.2403C55.4268 26.9183 56.1235 28.946 56.1584 31.0784C56.1584 34.6792 53.9984 37.8605 49.9224 37.8605C47.9018 37.8605 45.1496 36.7767 45.1496 31.8475C45.1496 30.9622 45.191 29.712 45.2414 28.1859C45.2945 26.5783 45.3578 24.6646 45.3935 22.5485C44.3484 23.842 42.711 25.2753 40.4117 25.2753C37.346 25.2753 35.4996 23.9818 35.0816 21.3249C33.3048 23.0029 30.274 25.2403 26.407 25.2403C23.3064 25.2403 21.0768 24.3314 19.7878 22.6534C17.9414 23.6672 14.4576 25.2403 10.1726 25.2403C7.55978 25.2403 5.60887 25.1005 3.90182 24.3314C3.96831 26.6 4.06301 28.5714 4.12311 29.8226C4.15747 30.5381 4.18052 31.018 4.18052 31.1833C4.18052 32.4069 2.82185 33.2459 1.77672 33.2459C0.661916 33.2459 0 32.4069 0 31.1833C0 30.5142 0.040836 29.6608 0.0912453 28.6072C0.172528 26.9084 0.278702 24.6893 0.278702 21.8843C0.278702 18.9066 0.159056 16.4091 0.0765501 14.6869C0.0331326 13.7806 0 13.089 0 12.6551C0 11.5015 0.90578 10.5925 2.05542 10.6275C2.99604 10.5925 3.83215 11.1868 4.11085 12.0958C5.365 11.1169 6.9327 10.6275 8.53523 10.6275C12.0887 10.6275 15.5376 12.6901 15.5376 17.6892C15.5376 19.3323 14.9802 20.9753 13.9699 22.3038C15.6421 21.9542 17.2447 21.3249 18.7078 20.4859C18.5337 19.7867 18.464 19.0875 18.464 18.3884C18.464 13.634 21.7736 10.5925 25.7799 10.5925C28.8804 10.5925 31.0404 12.3405 31.0404 14.8226C31.0404 18.0388 28.323 20.1713 22.9929 20.2062C23.4109 21.4648 24.4561 22.3387 26.7553 22.3387C30.3436 22.3387 32.9565 20.2062 35.0816 17.7591C35.1861 16.2908 35.2906 14.6478 35.2906 13.9486V13.599C34.9554 13.599 34.6872 13.6102 34.4543 13.6199C34.2757 13.6274 34.118 13.634 33.9667 13.634C33.0958 13.634 32.3991 12.9697 32.3642 12.0958V11.9909C32.3991 11.1519 33.1306 10.4877 33.9667 10.5226C34.1758 10.5226 34.3761 10.5314 34.5764 10.5401C34.7767 10.5488 34.977 10.5576 35.1861 10.5576C35.1507 9.56251 35.1062 8.57647 35.0711 7.79687C35.0371 7.04268 35.0119 6.48169 35.0119 6.2926V5.80317C35.1164 4.64953 36.1615 3.81052 37.3112 3.95035C38.4608 4.05523 39.2969 5.104 39.1576 6.25764C39.1576 7.45303 39.0947 8.86919 39.0287 10.3563C39.0252 10.4349 39.0217 10.5136 39.0182 10.5925C39.5371 10.5925 40.0745 10.5833 40.5971 10.5743C41.092 10.5659 41.5737 10.5576 42.0143 10.5576C43.0245 10.5576 43.6516 11.2218 43.6516 12.1307C43.6168 13.0047 42.92 13.7039 42.0491 13.6689C41.3175 13.6689 40.2027 13.6689 38.8789 13.634C38.844 14.2632 38.844 14.9274 38.844 15.5567C38.844 15.8347 38.8423 16.1102 38.8407 16.3819C38.8316 17.8527 38.8232 19.2139 39.0879 20.2762C39.3666 21.4298 40.0285 22.1639 41.0736 22.1639C43.0245 22.1639 44.4181 20.1014 45.3935 18.5981V17.7242C45.3935 13.7165 45.3134 10.4809 45.2618 8.39947C45.2373 7.41246 45.2193 6.68494 45.2193 6.25764C45.2193 3.07638 47.3793 0 51.5598 0C54.939 0 56.8203 2.41216 56.8203 5.90805C56.8203 10.4827 51.884 15.79 49.0606 18.4846C49.3547 20.2833 51.9653 22.129 53.9287 22.129C56.4719 22.129 57.5519 20.5908 57.5519 18.1437C57.5519 17.6103 57.3409 17.1446 57.1266 16.6717C56.9055 16.1838 56.6809 15.6881 56.6809 15.1022V14.9624C56.7158 13.4941 57.9002 12.3405 59.3634 12.3405C60.8266 12.3754 61.9762 13.564 61.9762 15.0323C61.9762 15.6801 61.7455 16.2075 61.5216 16.7193C61.3104 17.2019 61.1053 17.6707 61.1053 18.2136C61.1053 20.6607 62.1156 22.1639 64.7284 22.1639C66.749 22.1639 69.0831 20.416 69.2573 18.8428C69.2922 18.5283 69.2922 18.2137 69.2922 17.8641C69.2922 16.73 69.205 15.6286 69.1281 14.658C69.0676 13.8933 69.0135 13.2097 69.0135 12.6551C69.118 11.6763 69.8496 10.9072 70.825 10.8023C71.9747 10.6625 73.0198 11.4665 73.1591 12.6202C73.1591 12.8998 73.1591 13.2145 73.1243 13.599C74.1346 11.9909 75.8068 10.5925 78.2803 10.5925C80.8931 10.5925 82.6698 12.0608 82.6698 14.5079C82.6698 15.0276 82.6382 16.0239 82.6097 16.9197C82.5864 17.651 82.5653 18.3153 82.5653 18.5981C82.5653 21.4298 83.5059 22.1989 84.3769 22.1989C85.1782 22.1639 85.9446 21.8493 86.5368 21.29C86.1884 20.3461 85.9794 19.2973 86.0143 18.2835C86.0143 14.7177 88.8013 10.6275 94.0269 10.6275C95.734 10.6275 96.8139 11.012 97.5455 11.4665C97.5136 10.1701 97.4671 9.07881 97.4261 8.11557C97.3775 6.97491 97.3365 6.01376 97.3365 5.104C97.3365 3.95035 98.2771 3.04142 99.4268 3.04142C100.576 3.04142 101.482 3.98531 101.482 5.13896C101.482 6.60763 101.414 8.17878 101.345 9.76799C101.275 11.3942 101.203 13.0393 101.203 14.6128C101.203 21.0452 101.761 22.2338 103.259 22.2338C104.025 22.2688 104.722 21.9192 105.175 21.29C104.827 20.3461 104.652 19.3672 104.687 18.3884C104.687 13.634 107.997 10.5925 112.003 10.5925C115.069 10.5925 117.229 12.3405 117.229 14.8226C117.229 18.0388 114.511 20.1713 109.181 20.2062C109.634 21.4648 110.679 22.3387 112.979 22.3387C116.01 22.3387 118.378 20.8005 120.295 18.8428C120.329 18.5282 120.329 18.2136 120.329 17.864C120.329 16.7299 120.242 15.6286 120.165 14.658C120.105 13.8933 120.051 13.2097 120.051 12.6551C120.155 11.6763 120.887 10.9072 121.862 10.8023C123.012 10.6625 124.057 11.4665 124.196 12.6202C124.196 12.8998 124.196 13.2145 124.162 13.599ZM51.4901 3.28613C50.3753 3.28613 49.3302 4.61457 49.3302 6.39747C49.3302 6.63625 49.3101 7.39853 49.2833 8.4169C49.2395 10.0823 49.1776 12.4325 49.156 14.2982C50.8979 12.2706 53.2668 9.15923 53.2668 5.87309C53.2668 4.54465 52.7443 3.28613 51.4901 3.28613ZM3.90182 20.8355C4.8076 21.7095 5.99208 22.1989 7.24624 22.1639C9.19715 22.1639 11.3919 20.8705 11.3919 17.7242C11.3919 14.8925 9.75455 13.599 8.11718 13.599C5.39984 13.599 3.93666 16.186 3.93666 18.1786V18.2835C3.93666 18.6732 3.92847 19.0711 3.92004 19.4812C3.91107 19.9173 3.90182 20.3671 3.90182 20.8355ZM27.6263 14.8925C27.5566 13.9136 26.7205 13.1445 25.7451 13.2145C24.5954 13.2145 22.6793 14.2283 22.6793 17.7242C26.5812 17.6892 27.6263 16.6404 27.6263 14.9974V14.8925ZM49.365 31.9524C49.365 33.6304 49.9573 34.6792 51.0721 34.6792C51.8733 34.6792 52.7791 33.8402 52.8139 31.5679C52.8139 28.567 50.9042 26.2232 49.668 24.7061C49.5073 24.5088 49.3579 24.3255 49.2257 24.1566C49.2953 27.8972 49.365 31.7776 49.365 31.9524ZM93.4347 22.3387C96.1172 22.3387 97.6152 19.7518 97.6152 17.7591V15.0323C96.7791 14.0884 95.5946 13.564 94.3405 13.599C92.3547 13.599 90.1599 15.0323 90.1599 18.2136C90.1599 21.0452 91.7973 22.3387 93.4347 22.3387ZM113.85 14.9624C113.815 13.9486 112.979 13.1795 111.968 13.2145C110.784 13.2145 108.868 14.2283 108.903 17.7242C112.804 17.6542 113.85 16.5705 113.85 14.9974V14.9624Z" fill="#6504B5"/>
<path fill-rule="evenodd" clip-rule="evenodd" d="M127.924 23.7021C127.959 23.9468 127.819 24.1566 127.61 24.2265L128.029 24.646V24.681H127.75L127.367 24.2265H127.158V24.7159H126.914V23.3875H127.506C127.68 23.3875 127.889 23.4924 127.924 23.7021ZM127.715 23.807C127.68 23.7021 127.576 23.6322 127.471 23.6322H127.123V24.0517H127.541C127.645 24.0168 127.715 23.9119 127.715 23.807Z" fill="#6504B5"/>
<path fill-rule="evenodd" clip-rule="evenodd" d="M127.471 25.3452C128.133 25.3102 128.656 24.7159 128.621 24.0517C128.621 23.3525 128.063 22.7932 127.367 22.7932C126.67 22.7932 126.112 23.3525 126.112 24.0517V24.1915C126.147 24.8558 126.705 25.3801 127.367 25.3452H127.471ZM127.262 25.1005C126.705 25.0655 126.321 24.5761 126.356 24.0517C126.356 24.0168 126.356 23.9818 126.391 23.9119C126.426 23.3875 126.879 22.968 127.401 23.0029H127.471C127.994 23.0379 128.412 23.4924 128.377 24.0517V24.1915C128.342 24.7159 127.889 25.1354 127.367 25.1005H127.262Z" fill="#6504B5"/>
<path d="M66.8535 8.52997C66.8535 9.82356 65.8085 10.8722 64.5194 10.8722C63.2303 10.8722 62.1853 9.82356 62.1853 8.52997C62.1853 7.23639 63.2303 6.18773 64.5194 6.18773C65.8085 6.18773 66.8535 7.23639 66.8535 8.52997Z" fill="#6504B5"/>
</svg>
